{
  "accessors": [
    {
      "bufferView": 2,
      "componentType": 5126,
      "count": 779,
      "max": [
        1.0,
        1.0,
        5.182775974273682
      ],
      "min": [
        -1.0,
        -1.0,
        -1.0
      ],
      "type": "VEC3"
    },
    {
      "bufferView": 2,
      "byteOffset": 9348,
      "componentType": 5126,
      "count": 779,
      "max": [
        0.9898713231086731,
        0.9898713827133179,
        0.9954227805137634
      ],
      "min": [
        -0.9898713231086731,
        -0.9898713827133179,
        -0.9898710250854492
      ],
      "type": "VEC3"
    },
    {
      "bufferView": 1,
      "componentType": 5126,
      "count": 779,
      "max": [
        0.8730508685112,
        1.6720502376556396
      ],
      "min": [
        0.12694913148880005,
        -0.6566848754882813
      ],
      "type": "VEC2"
    },
    {
      "bufferView": 1,
      "byteOffset": 6232,
      "componentType": 5126,
      "count": 779,
      "max": [
        0.875,
        1.0
      ],
      "min": [
        0.125,
        0.0
      ],
      "type": "VEC2"
    },
    {
      "bufferView": 0,
      "componentType": 5125,
      "count": 3300,
      "type": "SCALAR"
    },
    {
      "bufferView": 2,
      "byteOffset": 18696,
      "componentType": 5126,
      "count": 11044,
      "max": [
        0.34905943274497986,
        0.349059522151947,
        8.293468475341797
      ],
      "min": [
        -0.34905967116355896,
        -0.349059522151947,
        -2.2656683921813965
      ],
      "type": "VEC3"
    },
    {
      "bufferView": 2,
      "byteOffset": 151224,
      "componentType": 5126,
      "count": 11044,
      "max": [
        1.0,
        1.0,
        1.0
      ],
      "min": [
        -1.0,
        -1.0,
        -1.0
      ],
      "type": "VEC3"
    },
    {
      "bufferView": 1,
      "byteOffset": 12464,
      "componentType": 5126,
      "count": 11044,
      "max": [
        1.0,
        1.0
      ],
      "min": [
        0.0,
        0.0
      ],
      "type": "VEC2"
    },
    {
      "bufferView": 0,
      "byteOffset": 13200,
      "componentType": 5125,
      "count": 39816,
      "type": "SCALAR"
    },
    {
      "bufferView": 2,
      "byteOffset": 283752,
      "componentType": 5126,
      "count": 1089,
      "max": [
        0.996049165725708,
        2.864351272583008,
        0.22219368815422058
      ],
      "min": [
        -0.996329665184021,
        0.8579423427581787,
        -0.816325843334198
      ],
      "type": "VEC3"
    },
    {
      "bufferView": 2,
      "byteOffset": 296820,
      "componentType": 5126,
      "count": 1089,
      "max": [
        0.8684852123260498,
        0.7603614926338196,
        0.9996036887168884
      ],
      "min": [
        -0.4604308009147644,
        -0.662697434425354,
        0.47303301095962524
      ],
      "type": "VEC3"
    },
    {
      "bufferView": 1,
      "byteOffset": 100816,
      "componentType": 5126,
      "count": 1089,
      "max": [
        1.0,
        1.0
      ],
      "min": [
        0.0,
        0.0
      ],
      "type": "VEC2"
    },
    {
      "bufferView": 0,
      "byteOffset": 172464,
      "componentType": 5125,
      "count": 6144,
      "type": "SCALAR"
    }
  ],
  "asset": {
    "extras": {
      "author": "ognuogaan135 (https://sketchfab.com/ognuogaan135)",
      "license": "CC-BY-4.0 (http://creativecommons.org/licenses/by/4.0/)",
      "source": "https://sketchfab.com/3d-models/uzbekistan-flag-fa88ee30b58a492c8c3e66a65daac750",
      "title": "Uzbekistan Flag"
    },
    "generator": "Sketchfab-16.74.0",
    "version": "2.0"
  },
  "bufferViews": [
    {
      "buffer": 0,
      "byteLength": 197040,
      "name": "floatBufferViews",
      "target": 34963
    },
    {
      "buffer": 0,
      "byteLength": 109528,
      "byteOffset": 197040,
      "byteStride": 8,
      "name": "floatBufferViews",
      "target": 34962
    },
    {
      "buffer": 0,
      "byteLength": 309888,
      "byteOffset": 306568,
      "byteStride": 12,
      "name": "floatBufferViews",
      "target": 34962
    }
  ],
  "buffers": [
    {
      "byteLength": 616456,
      "uri": "scene.bin"
    }
  ],
  "images": [
    {
      "uri": "textures/Material.003_baseColor.jpeg"
    },
    {
      "uri": "textures/Material.005_baseColor.jpeg"
    }
  ],
  "materials": [
    {
      "doubleSided": true,
      "name": "Material.003",
      "pbrMetallicRoughness": {
        "baseColorTexture": {
          "index": 0
        },
        "metallicFactor": 0.0,
        "roughnessFactor": 0.8211145618000169
      }
    },
    {
      "doubleSided": true,
      "name": "Material.001",
      "pbrMetallicRoughness": {
        "baseColorFactor": [
          0.8,
          0.8,
          0.8,
          1.0
        ],
        "roughnessFactor": 0.18687331861219525
      }
    },
    {
      "doubleSided": true,
      "name": "Material.005",
      "pbrMetallicRoughness": {
        "baseColorTexture": {
          "index": 1
        },
        "metallicFactor": 0.27833482480925725,
        "roughnessFactor": 0.8827308024730263
      }
    }
  ],
  "meshes": [
    {
      "name": "Cube.001_Material.003_0",
      "primitives": [
        {
          "attributes": {
            "NORMAL": 1,
            "POSITION": 0,
            "TEXCOORD_0": 2,
            "TEXCOORD_1": 3
          },
          "indices": 4,
          "material": 0,
          "mode": 4
        }
      ]
    },
    {
      "name": "Cylinder_Material.001_0",
      "primitives": [
        {
          "attributes": {
            "NORMAL": 6,
            "POSITION": 5,
            "TEXCOORD_0": 7
          },
          "indices": 8,
          "material": 1,
          "mode": 4
        }
      ]
    },
    {
      "name": "Plane_Material.005_0",
      "primitives": [
        {
          "attributes": {
            "NORMAL": 10,
            "POSITION": 9,
            "TEXCOORD_0": 11
          },
          "indices": 12,
          "material": 2,
          "mode": 4
        }
      ]
    }
  ],
  "nodes": [
    {
      "children": [
        1
      ],
      "matrix": [
        1.0,
        0.0,
        0.0,
        0.0,
        0.0,
        2.220446049250313e-16,
        -1.0,
        0.0,
        0.0,
        1.0,
        2.220446049250313e-16,
        0.0,
        0.0,
        0.0,
        0.0,
        1.0
      ],
      "name": "Sketchfab_model"
    },
    {
      "children": [
        2
      ],
      "matrix": [
        0.009999999776482582,
        0.0,
        0.0,
        0.0,
        0.0,
        0.0,
        0.009999999776482582,
        0.0,
        0.0,
        -0.009999999776482582,
        0.0,
        0.0,
        0.0,
        0.0,
        0.0,
        1.0
      ],
      "name": "Malaysian flag.fbx"
    },
    {
      "children": [
        3,
        5,
        7
      ],
      "name": "RootNode"
    },
    {
      "children": [
        4
      ],
      "matrix": [
        169.3633270263672,
        0.0,
        0.0,
        0.0,
        0.0,
        -4.068121637467684e-05,
        -144.1931762695255,
        0.0,
        0.0,
        9.983377456664643,
        -2.816609974008042e-06,
        0.0,
        0.0,
        -280.2659606933594,
        0.0,
        1.0
      ],
      "name": "Cube.001"
    },
    {
      "mesh": 0,
      "name": "Cube.001_Material.003_0"
    },
    {
      "children": [
        6
      ],
      "matrix": [
        100.0,
        0.0,
        0.0,
        0.0,
        0.0,
        -2.8212996916465727e-05,
        -99.99999999999602,
        0.0,
        0.0,
        99.99999999999602,
        -2.8212996916465727e-05,
        0.0,
        0.0,
        0.0,
        0.0,
        1.0
      ],
      "name": "Cylinder"
    },
    {
      "mesh": 1,
      "name": "Cylinder_Material.001_0"
    },
    {
      "children": [
        8
      ],
      "matrix": [
        250.82838439941406,
        0.0,
        0.0,
        0.0,
        0.0,
        166.2932586669917,
        -1.2554792023716587e-05,
        0.0,
        0.0,
        1.2554792023716587e-05,
        166.2932586669917,
        0.0,
        257.0710754394531,
        299.1808776855469,
        0.0,
        1.0
      ],
      "name": "Plane"
    },
    {
      "mesh": 2,
      "name": "Plane_Material.005_0"
    }
  ],
  "samplers": [
    {
      "magFilter": 9729,
      "minFilter": 9987,
      "wrapS": 10497,
      "wrapT": 10497
    }
  ],
  "scene": 0,
  "scenes": [
    {
      "name": "Sketchfab_Scene",
      "nodes": [
        0
      ]
    }
  ],
  "textures": [
    {
      "sampler": 0,
      "source": 0
    },
    {
      "sampler": 0,
      "source": 1
    }
  ]
}
