{
  "accessors": [
    {
      "bufferView": 2,
      "componentType": 5126,
      "count": 65532,
      "max": [
        0.7354599833488464,
        1.3379299640655518,
        2.1305999755859375
      ],
      "min": [
        -0.6547099947929382,
        -1.3043800592422485,
        0.003920000046491623
      ],
      "type": "VEC3"
    },
    {
      "bufferView": 2,
      "byteOffset": 786384,
      "componentType": 5126,
      "count": 65532,
      "max": [
        0.9999730587005615,
        0.999981164932251,
        1.0
      ],
      "min": [
        -0.9999291896820068,
        -0.9999732375144958,
        -0.9992575645446777
      ],
      "type": "VEC3"
    },
    {
      "bufferView": 1,
      "componentType": 5126,
      "count": 65532,
      "max": [
        0.9978029727935791,
        0.8872420191764832
      ],
      "min": [
        0.06226800009608269,
        0.27298998832702637
      ],
      "type": "VEC2"
    },
    {
      "bufferView": 0,
      "componentType": 5125,
      "count": 363501,
      "type": "SCALAR"
    },
    {
      "bufferView": 2,
      "byteOffset": 1572768,
      "componentType": 5126,
      "count": 65532,
      "max": [
        0.6342300176620483,
        1.302109956741333,
        2.1064400672912598
      ],
      "min": [
        -0.6543200016021729,
        -1.1910400390625,
        -0.0031799999997019768
      ],
      "type": "VEC3"
    },
    {
      "bufferView": 2,
      "byteOffset": 2359152,
      "componentType": 5126,
      "count": 65532,
      "max": [
        0.999983012676239,
        0.9999588131904602,
        0.9999999403953552
      ],
      "min": [
        -0.9999727010726929,
        -0.9999886155128479,
        -0.9985920786857605
      ],
      "type": "VEC3"
    },
    {
      "bufferView": 1,
      "byteOffset": 524256,
      "componentType": 5126,
      "count": 65532,
      "max": [
        0.8218669891357422,
        0.9957200288772583
      ],
      "min": [
        0.0021269998978823423,
        0.2731330096721649
      ],
      "type": "VEC2"
    },
    {
      "bufferView": 0,
      "byteOffset": 1454004,
      "componentType": 5125,
      "count": 372594,
      "type": "SCALAR"
    },
    {
      "bufferView": 2,
      "byteOffset": 3145536,
      "componentType": 5126,
      "count": 65532,
      "max": [
        0.7417100071907043,
        1.336940050125122,
        2.1282799243927
      ],
      "min": [
        -0.584630012512207,
        -0.7522600293159485,
        -0.009879999794065952
      ],
      "type": "VEC3"
    },
    {
      "bufferView": 2,
      "byteOffset": 3931920,
      "componentType": 5126,
      "count": 65532,
      "max": [
        0.9999614953994751,
        0.9998779296875,
        1.0
      ],
      "min": [
        -0.9999886155128479,
        -0.9999995827674866,
        -0.9998220205307007
      ],
      "type": "VEC3"
    },
    {
      "bufferView": 1,
      "byteOffset": 1048512,
      "componentType": 5126,
      "count": 65532,
      "max": [
        0.9232919812202454,
        0.9958339929580688
      ],
      "min": [
        0.002125999890267849,
        0.6370890140533447
      ],
      "type": "VEC2"
    },
    {
      "bufferView": 0,
      "byteOffset": 2944380,
      "componentType": 5125,
      "count": 369204,
      "type": "SCALAR"
    },
    {
      "bufferView": 2,
      "byteOffset": 4718304,
      "componentType": 5126,
      "count": 44301,
      "max": [
        0.7394499778747559,
        1.166700005531311,
        2.109339952468872
      ],
      "min": [
        -0.6430400013923645,
        -1.1553499698638916,
        0.01030999980866909
      ],
      "type": "VEC3"
    },
    {
      "bufferView": 2,
      "byteOffset": 5249916,
      "componentType": 5126,
      "count": 44301,
      "max": [
        0.9966394305229187,
        0.9974364638328552,
        1.0
      ],
      "min": [
        -0.9999781847000122,
        -0.9999954104423523,
        -0.9985920786857605
      ],
      "type": "VEC3"
    },
    {
      "bufferView": 1,
      "byteOffset": 1572768,
      "componentType": 5126,
      "count": 44301,
      "max": [
        0.9938629865646362,
        0.9956849813461304
      ],
      "min": [
        0.002130999928340316,
        0.4241139888763428
      ],
      "type": "VEC2"
    },
    {
      "bufferView": 0,
      "byteOffset": 4421196,
      "componentType": 5125,
      "count": 248418,
      "type": "SCALAR"
    }
  ],
  "asset": {
    "extras": {
      "author": "isokushi (https://sketchfab.com/isokushi)",
      "license": "CC-BY-NC-SA-4.0 (http://creativecommons.org/licenses/by-nc-sa/4.0/)",
      "source": "https://sketchfab.com/3d-models/kangaroo-9d43bf33329d478ab6419af205492c90",
      "title": "kangaroo"
    },
    "generator": "Sketchfab-13.52.1",
    "version": "2.0"
  },
  "bufferViews": [
    {
      "buffer": 0,
      "byteLength": 5414868,
      "name": "floatBufferViews",
      "target": 34963
    },
    {
      "buffer": 0,
      "byteLength": 1927176,
      "byteOffset": 5414868,
      "byteStride": 8,
      "name": "floatBufferViews",
      "target": 34962
    },
    {
      "buffer": 0,
      "byteLength": 5781528,
      "byteOffset": 7342044,
      "byteStride": 12,
      "name": "floatBufferViews",
      "target": 34962
    }
  ],
  "buffers": [
    {
      "byteLength": 13123572,
      "uri": "scene.bin"
    }
  ],
  "extensionsUsed": [
    "KHR_materials_unlit"
  ],
  "images": [
    {
      "uri": "textures/main_baseColor.jpeg"
    }
  ],
  "materials": [
    {
      "doubleSided": true,
      "extensions": {
        "KHR_materials_unlit": {}
      },
      "name": "main",
      "pbrMetallicRoughness": {
        "baseColorTexture": {
          "index": 0
        },
        "metallicFactor": 0.0
      }
    }
  ],
  "meshes": [
    {
      "name": "Object_0",
      "primitives": [
        {
          "attributes": {
            "NORMAL": 1,
            "POSITION": 0,
            "TEXCOORD_0": 2
          },
          "indices": 3,
          "material": 0,
          "mode": 4
        }
      ]
    },
    {
      "name": "Object_1",
      "primitives": [
        {
          "attributes": {
            "NORMAL": 5,
            "POSITION": 4,
            "TEXCOORD_0": 6
          },
          "indices": 7,
          "material": 0,
          "mode": 4
        }
      ]
    },
    {
      "name": "Object_2",
      "primitives": [
        {
          "attributes": {
            "NORMAL": 9,
            "POSITION": 8,
            "TEXCOORD_0": 10
          },
          "indices": 11,
          "material": 0,
          "mode": 4
        }
      ]
    },
    {
      "name": "Object_3",
      "primitives": [
        {
          "attributes": {
            "NORMAL": 13,
            "POSITION": 12,
            "TEXCOORD_0": 14
          },
          "indices": 15,
          "material": 0,
          "mode": 4
        }
      ]
    }
  ],
  "nodes": [
    {
      "children": [
        1
      ],
      "matrix": [
        1.0,
        0.0,
        0.0,
        0.0,
        0.0,
        2.220446049250313e-16,
        -1.0,
        0.0,
        0.0,
        1.0,
        2.220446049250313e-16,
        0.0,
        0.0,
        0.0,
        0.0,
        1.0
      ],
      "name": "Sketchfab_model"
    },
    {
      "children": [
        2,
        3,
        4,
        5
      ],
      "name": "Scaniverse.obj.cleaner.materialmerger.gles"
    },
    {
      "mesh": 0,
      "name": "Object_2"
    },
    {
      "mesh": 1,
      "name": "Object_3"
    },
    {
      "mesh": 2,
      "name": "Object_4"
    },
    {
      "mesh": 3,
      "name": "Object_5"
    }
  ],
  "samplers": [
    {
      "magFilter": 9729,
      "minFilter": 9987,
      "wrapS": 10497,
      "wrapT": 10497
    }
  ],
  "scene": 0,
  "scenes": [
    {
      "name": "Sketchfab_Scene",
      "nodes": [
        0
      ]
    }
  ],
  "textures": [
    {
      "sampler": 0,
      "source": 0
    }
  ]
}
