{
  "accessors": [
    {
      "bufferView": 2,
      "componentType": 5126,
      "count": 4800,
      "max": [
        21.464763641357422,
        21.464759826660156,
        16.37970542907715
      ],
      "min": [
        -21.464763641357422,
        -21.464767456054688,
        -0.035466015338897705
      ],
      "type": "VEC3"
    },
    {
      "bufferView": 2,
      "byteOffset": 57600,
      "componentType": 5126,
      "count": 4800,
      "max": [
        1.0,
        1.0,
        0.9988678097724915
      ],
      "min": [
        -1.0,
        -1.0,
        -0.9998798966407776
      ],
      "type": "VEC3"
    },
    {
      "bufferView": 1,
      "componentType": 5126,
      "count": 4800,
      "max": [
        0.9968489408493042,
        0.9968492984771729
      ],
      "min": [
        0.0031510591506958008,
        0.0031506717205047607
      ],
      "type": "VEC2"
    },
    {
      "bufferView": 1,
      "byteOffset": 38400,
      "componentType": 5126,
      "count": 4800,
      "max": [
        0.9968489408493042,
        0.9968492984771729
      ],
      "min": [
        0.0031510591506958008,
        0.0031506717205047607
      ],
      "type": "VEC2"
    },
    {
      "bufferView": 0,
      "componentType": 5125,
      "count": 27648,
      "type": "SCALAR"
    }
  ],
  "asset": {
    "extras": {
      "author": "Cerames (https://sketchfab.com/cerames)",
      "license": "CC-BY-4.0 (http://creativecommons.org/licenses/by/4.0/)",
      "source": "https://sketchfab.com/3d-models/zanya-colorful-moroccan-sink-02ca74ef6a1b4ec386c11048603f0e98",
      "title": "ZANYA - COLORFUL MOROCCAN SINK"
    },
    "generator": "Sketchfab-13.23.0",
    "version": "2.0"
  },
  "bufferViews": [
    {
      "buffer": 0,
      "byteLength": 110592,
      "name": "floatBufferViews",
      "target": 34963
    },
    {
      "buffer": 0,
      "byteLength": 76800,
      "byteOffset": 110592,
      "byteStride": 8,
      "name": "floatBufferViews",
      "target": 34962
    },
    {
      "buffer": 0,
      "byteLength": 115200,
      "byteOffset": 187392,
      "byteStride": 12,
      "name": "floatBufferViews",
      "target": 34962
    }
  ],
  "buffers": [
    {
      "byteLength": 302592,
      "uri": "scene.bin"
    }
  ],
  "images": [
    {
      "uri": "textures/Material_46_baseColor.png"
    }
  ],
  "materials": [
    {
      "doubleSided": true,
      "name": "Material_46",
      "pbrMetallicRoughness": {
        "baseColorTexture": {
          "index": 0
        },
        "metallicFactor": 0.0,
        "roughnessFactor": 0.5331378157652611
      }
    }
  ],
  "meshes": [
    {
      "name": "15_Zanya_Material #46_0",
      "primitives": [
        {
          "attributes": {
            "NORMAL": 1,
            "POSITION": 0,
            "TEXCOORD_0": 2,
            "TEXCOORD_1": 3
          },
          "indices": 4,
          "material": 0,
          "mode": 4
        }
      ]
    }
  ],
  "nodes": [
    {
      "children": [
        1
      ],
      "matrix": [
        1.0,
        0.0,
        0.0,
        0.0,
        0.0,
        -5.053215392444312e-16,
        1.0,
        0.0,
        0.0,
        -1.0,
        -5.053215392444312e-16,
        0.0,
        0.0,
        0.0,
        0.0,
        1.0
      ],
      "name": "Sketchfab_model"
    },
    {
      "children": [
        2
      ],
      "matrix": [
        0.009999999776482582,
        0.0,
        0.0,
        0.0,
        0.0,
        -0.009999999776482582,
        0.0,
        0.0,
        0.0,
        0.0,
        -0.009999999776482582,
        0.0,
        0.0,
        0.0,
        0.0,
        1.0
      ],
      "name": "15_Zanya.fbx"
    },
    {
      "children": [
        3
      ],
      "name": "RootNode"
    },
    {
      "children": [
        4
      ],
      "matrix": [
        0.981016993522644,
        0.0,
        0.0,
        0.0,
        0.0,
        0.981016993522644,
        0.0,
        0.0,
        0.0,
        0.0,
        0.981016993522644,
        0.0,
        0.0,
        0.0,
        0.0,
        1.0
      ],
      "name": "15_Zanya"
    },
    {
      "mesh": 0,
      "name": "15_Zanya_Material #46_0"
    }
  ],
  "samplers": [
    {
      "magFilter": 9729,
      "minFilter": 9987,
      "wrapS": 10497,
      "wrapT": 10497
    }
  ],
  "scene": 0,
  "scenes": [
    {
      "name": "Sketchfab_Scene",
      "nodes": [
        0
      ]
    }
  ],
  "textures": [
    {
      "sampler": 0,
      "source": 0
    }
  ]
}
