{
  "accessors": [
    {
      "bufferView": 2,
      "componentType": 5126,
      "count": 3425,
      "max": [
        546.7481079101563,
        1588.065673828125,
        346.17852783203125
      ],
      "min": [
        -551.5580444335938,
        10.135472297668457,
        -458.4773864746094
      ],
      "type": "VEC3"
    },
    {
      "bufferView": 2,
      "byteOffset": 41100,
      "componentType": 5126,
      "count": 3425,
      "max": [
        0.9999157190322876,
        0.9985361099243164,
        0.9997570514678955
      ],
      "min": [
        -0.994613766670227,
        -0.9996002912521362,
        -0.9999141097068787
      ],
      "type": "VEC3"
    },
    {
      "bufferView": 3,
      "componentType": 5126,
      "count": 3425,
      "max": [
        0.9999716281890869,
        0.9982942342758179,
        0.9983298182487488,
        1.0
      ],
      "min": [
        -0.9999104738235474,
        -0.9951408505439758,
        -0.9994699954986572,
        -1.0
      ],
      "type": "VEC4"
    },
    {
      "bufferView": 1,
      "componentType": 5126,
      "count": 3425,
      "max": [
        0.98499995470047,
        0.9742159843444824
      ],
      "min": [
        0.015101771801710129,
        0.015044390223920345
      ],
      "type": "VEC2"
    },
    {
      "bufferView": 1,
      "byteOffset": 27400,
      "componentType": 5126,
      "count": 3425,
      "max": [
        0.98499995470047,
        0.9742159843444824
      ],
      "min": [
        0.015101771801710129,
        0.015044390223920345
      ],
      "type": "VEC2"
    },
    {
      "bufferView": 0,
      "componentType": 5125,
      "count": 15276,
      "type": "SCALAR"
    }
  ],
  "asset": {
    "extras": {
      "author": "Korea Culture Information Service Agency (https://sketchfab.com/kcisameta)",
      "license": "CC-BY-4.0 (http://creativecommons.org/licenses/by/4.0/)",
      "source": "https://sketchfab.com/3d-models/kcisa-korean-traditional-clothes-geommubok-e233539898fd448cb3a0ae598bfcf656",
      "title": "KCISA-Korean_traditional_clothes_Geommubok(검무복)"
    },
    "generator": "Sketchfab-15.17.0",
    "version": "2.0"
  },
  "bufferViews": [
    {
      "buffer": 0,
      "byteLength": 61104,
      "name": "floatBufferViews",
      "target": 34963
    },
    {
      "buffer": 0,
      "byteLength": 54800,
      "byteOffset": 61104,
      "byteStride": 8,
      "name": "floatBufferViews",
      "target": 34962
    },
    {
      "buffer": 0,
      "byteLength": 82200,
      "byteOffset": 115904,
      "byteStride": 12,
      "name": "floatBufferViews",
      "target": 34962
    },
    {
      "buffer": 0,
      "byteLength": 54800,
      "byteOffset": 198104,
      "byteStride": 16,
      "name": "floatBufferViews",
      "target": 34962
    }
  ],
  "buffers": [
    {
      "byteLength": 252904,
      "uri": "scene.bin"
    }
  ],
  "images": [
    {
      "uri": "textures/lambert2_baseColor.png"
    },
    {
      "uri": "textures/lambert2_normal.png"
    }
  ],
  "materials": [
    {
      "doubleSided": true,
      "name": "lambert2",
      "normalTexture": {
        "index": 1
      },
      "pbrMetallicRoughness": {
        "baseColorTexture": {
          "index": 0
        },
        "metallicFactor": 0.0,
        "roughnessFactor": 0.6
      }
    }
  ],
  "meshes": [
    {
      "name": "geomubok_lambert2_0",
      "primitives": [
        {
          "attributes": {
            "NORMAL": 1,
            "POSITION": 0,
            "TANGENT": 2,
            "TEXCOORD_0": 3,
            "TEXCOORD_1": 4
          },
          "indices": 5,
          "material": 0,
          "mode": 4
        }
      ]
    }
  ],
  "nodes": [
    {
      "children": [
        1
      ],
      "matrix": [
        1.0,
        0.0,
        0.0,
        0.0,
        0.0,
        2.220446049250313e-16,
        -1.0,
        0.0,
        0.0,
        1.0,
        2.220446049250313e-16,
        0.0,
        0.0,
        0.0,
        0.0,
        1.0
      ],
      "name": "Sketchfab_model"
    },
    {
      "children": [
        2
      ],
      "matrix": [
        0.009999999776482582,
        0.0,
        0.0,
        0.0,
        0.0,
        0.0,
        0.009999999776482582,
        0.0,
        0.0,
        -0.009999999776482582,
        0.0,
        0.0,
        0.0,
        0.0,
        0.0,
        1.0
      ],
      "name": "8c6df5647b6c4531a3bb94720325a970.fbx"
    },
    {
      "children": [
        3
      ],
      "name": "RootNode"
    },
    {
      "children": [
        4
      ],
      "name": "geomubok"
    },
    {
      "mesh": 0,
      "name": "geomubok_lambert2_0"
    }
  ],
  "samplers": [
    {
      "magFilter": 9729,
      "minFilter": 9987,
      "wrapS": 10497,
      "wrapT": 10497
    }
  ],
  "scene": 0,
  "scenes": [
    {
      "name": "Sketchfab_Scene",
      "nodes": [
        0
      ]
    }
  ],
  "textures": [
    {
      "sampler": 0,
      "source": 0
    },
    {
      "sampler": 0,
      "source": 1
    }
  ]
}
