{
  "accessors": [
    {
      "bufferView": 2,
      "componentType": 5126,
      "count": 65532,
      "max": [
        12.090360641479492,
        10.41124439239502,
        6.331133842468262
      ],
      "min": [
        -12.30932331085205,
        -5.914054870605469,
        -2.3026227951049805
      ],
      "type": "VEC3"
    },
    {
      "bufferView": 2,
      "byteOffset": 786384,
      "componentType": 5126,
      "count": 65532,
      "max": [
        1.0,
        1.0,
        1.0
      ],
      "min": [
        -1.0,
        -1.0,
        -1.0
      ],
      "type": "VEC3"
    },
    {
      "bufferView": 1,
      "componentType": 5126,
      "count": 65532,
      "max": [
        0.8079625368118286,
        0.9919663071632385
      ],
      "min": [
        0.01590665988624096,
        0.05006857216358185
      ],
      "type": "VEC2"
    },
    {
      "bufferView": 0,
      "componentType": 5125,
      "count": 284886,
      "type": "SCALAR"
    },
    {
      "bufferView": 2,
      "byteOffset": 1572768,
      "componentType": 5126,
      "count": 28481,
      "max": [
        5.774383544921875,
        4.173751354217529,
        3.504121780395508
      ],
      "min": [
        -4.302919387817383,
        -1.0469517707824707,
        0.8382712006568909
      ],
      "type": "VEC3"
    },
    {
      "bufferView": 2,
      "byteOffset": 1914540,
      "componentType": 5126,
      "count": 28481,
      "max": [
        0.9999295473098755,
        0.9999851584434509,
        1.0
      ],
      "min": [
        -0.9999303221702576,
        -0.9996762275695801,
        -1.0
      ],
      "type": "VEC3"
    },
    {
      "bufferView": 1,
      "byteOffset": 524256,
      "componentType": 5126,
      "count": 28481,
      "max": [
        0.7967578172683716,
        0.9919663071632385
      ],
      "min": [
        0.01590665988624096,
        0.05006857216358185
      ],
      "type": "VEC2"
    },
    {
      "bufferView": 0,
      "byteOffset": 1139544,
      "componentType": 5125,
      "count": 128832,
      "type": "SCALAR"
    }
  ],
  "asset": {
    "extras": {
      "author": "Ergoni (https://sketchfab.com/Ergoni)",
      "license": "CC-BY-4.0 (http://creativecommons.org/licenses/by/4.0/)",
      "source": "https://sketchfab.com/3d-models/sushi-free-c139467016664eaf8a63fc3d79361f4e",
      "title": "Sushi Free"
    },
    "generator": "Sketchfab-16.33.0",
    "version": "2.0"
  },
  "bufferViews": [
    {
      "buffer": 0,
      "byteLength": 1654872,
      "name": "floatBufferViews",
      "target": 34963
    },
    {
      "buffer": 0,
      "byteLength": 752104,
      "byteOffset": 1654872,
      "byteStride": 8,
      "name": "floatBufferViews",
      "target": 34962
    },
    {
      "buffer": 0,
      "byteLength": 2256312,
      "byteOffset": 2406976,
      "byteStride": 12,
      "name": "floatBufferViews",
      "target": 34962
    }
  ],
  "buffers": [
    {
      "byteLength": 4663288,
      "uri": "scene.bin"
    }
  ],
  "extensionsUsed": [
    "KHR_materials_specular"
  ],
  "images": [
    {
      "uri": "textures/Sushi_Props_baseColor.png"
    }
  ],
  "materials": [
    {
      "emissiveFactor": [
        0.8471846710094062,
        0.8471846710094062,
        0.8471846710094062
      ],
      "emissiveTexture": {
        "index": 0
      },
      "extensions": {
        "KHR_materials_specular": {
          "specularColorFactor": [
            1.0,
            1.0,
            1.0
          ],
          "specularFactor": 0.0
        }
      },
      "name": "Sushi_Props",
      "pbrMetallicRoughness": {
        "baseColorTexture": {
          "index": 0
        },
        "metallicFactor": 0.0
      }
    }
  ],
  "meshes": [
    {
      "name": "Sushi_free_Sushi_Props_0",
      "primitives": [
        {
          "attributes": {
            "NORMAL": 1,
            "POSITION": 0,
            "TEXCOORD_0": 2
          },
          "indices": 3,
          "material": 0,
          "mode": 4
        }
      ]
    },
    {
      "name": "Sushi_free_Sushi_Props_0",
      "primitives": [
        {
          "attributes": {
            "NORMAL": 5,
            "POSITION": 4,
            "TEXCOORD_0": 6
          },
          "indices": 7,
          "material": 0,
          "mode": 4
        }
      ]
    }
  ],
  "nodes": [
    {
      "children": [
        1
      ],
      "matrix": [
        1.0,
        0.0,
        0.0,
        0.0,
        0.0,
        2.220446049250313e-16,
        -1.0,
        0.0,
        0.0,
        1.0,
        2.220446049250313e-16,
        0.0,
        0.0,
        0.0,
        0.0,
        1.0
      ],
      "name": "Sketchfab_model"
    },
    {
      "children": [
        2
      ],
      "matrix": [
        0.009999999776482582,
        0.0,
        0.0,
        0.0,
        0.0,
        0.0,
        0.009999999776482582,
        0.0,
        0.0,
        -0.009999999776482582,
        0.0,
        0.0,
        0.0,
        0.0,
        0.0,
        1.0
      ],
      "name": "b0bb485d9cbe45a39cc2932fe421715e.fbx"
    },
    {
      "children": [
        3
      ],
      "name": "RootNode"
    },
    {
      "children": [
        4,
        5
      ],
      "matrix": [
        100.0,
        0.0,
        0.0,
        0.0,
        0.0,
        -1.629206793918314e-05,
        -99.99999999999868,
        0.0,
        0.0,
        99.99999999999868,
        -1.629206793918314e-05,
        0.0,
        62.98317337036133,
        168.94862365722656,
        53.011966705322266,
        1.0
      ],
      "name": "Sushi_free"
    },
    {
      "mesh": 0,
      "name": "Sushi_free_Sushi_Props_0"
    },
    {
      "mesh": 1,
      "name": "Sushi_free_Sushi_Props_0"
    }
  ],
  "samplers": [
    {
      "magFilter": 9729,
      "minFilter": 9987,
      "wrapS": 10497,
      "wrapT": 10497
    }
  ],
  "scene": 0,
  "scenes": [
    {
      "name": "Sketchfab_Scene",
      "nodes": [
        0
      ]
    }
  ],
  "textures": [
    {
      "sampler": 0,
      "source": 0
    }
  ]
}
