{
  "accessors": [
    {
      "bufferView": 2,
      "componentType": 5126,
      "count": 65532,
      "max": [
        188.00599670410156,
        50.35242462158203,
        1528.8792724609375
      ],
      "min": [
        -355.6669921875,
        -86.93091583251953,
        17.901397705078125
      ],
      "type": "VEC3"
    },
    {
      "bufferView": 2,
      "byteOffset": 786384,
      "componentType": 5126,
      "count": 65532,
      "max": [
        0.9999978542327881,
        0.9999962449073792,
        0.9999760985374451
      ],
      "min": [
        -0.9999942183494568,
        -0.9999929070472717,
        -0.9999760985374451
      ],
      "type": "VEC3"
    },
    {
      "bufferView": 1,
      "componentType": 5126,
      "count": 65532,
      "max": [
        0.9980000257492065,
        0.9688000082969666
      ],
      "min": [
        0.000699999975040555,
        0.000699999975040555
      ],
      "type": "VEC2"
    },
    {
      "bufferView": 0,
      "componentType": 5125,
      "count": 324171,
      "type": "SCALAR"
    },
    {
      "bufferView": 2,
      "byteOffset": 1572768,
      "componentType": 5126,
      "count": 65532,
      "max": [
        214.83970642089844,
        222.14920043945313,
        1531.0179443359375
      ],
      "min": [
        -419.8606872558594,
        -170.98410034179688,
        -0.6190000176429749
      ],
      "type": "VEC3"
    },
    {
      "bufferView": 2,
      "byteOffset": 2359152,
      "componentType": 5126,
      "count": 65532,
      "max": [
        0.9999444484710693,
        0.9999943375587463,
        0.9999992251396179
      ],
      "min": [
        -0.9999593496322632,
        -0.9999831318855286,
        -0.9999997615814209
      ],
      "type": "VEC3"
    },
    {
      "bufferView": 1,
      "byteOffset": 524256,
      "componentType": 5126,
      "count": 65532,
      "max": [
        0.9983000159263611,
        0.9993000030517578
      ],
      "min": [
        0.002199999988079071,
        0.0007999999797903001
      ],
      "type": "VEC2"
    },
    {
      "bufferView": 0,
      "byteOffset": 1296684,
      "componentType": 5125,
      "count": 349503,
      "type": "SCALAR"
    },
    {
      "bufferView": 2,
      "byteOffset": 3145536,
      "componentType": 5126,
      "count": 65532,
      "max": [
        224.51260375976563,
        211.7429962158203,
        1520.53857421875
      ],
      "min": [
        -390.31939697265625,
        -227.29200744628906,
        -1.0744999647140503
      ],
      "type": "VEC3"
    },
    {
      "bufferView": 2,
      "byteOffset": 3931920,
      "componentType": 5126,
      "count": 65532,
      "max": [
        0.9999974966049194,
        0.999999463558197,
        0.9999136328697205
      ],
      "min": [
        -0.9999908804893494,
        -0.9990373849868774,
        -0.9999996423721313
      ],
      "type": "VEC3"
    },
    {
      "bufferView": 1,
      "byteOffset": 1048512,
      "componentType": 5126,
      "count": 65532,
      "max": [
        0.941100001335144,
        0.8511999845504761
      ],
      "min": [
        0.0364999994635582,
        0.0024999999441206455
      ],
      "type": "VEC2"
    },
    {
      "bufferView": 0,
      "byteOffset": 2694696,
      "componentType": 5125,
      "count": 368706,
      "type": "SCALAR"
    },
    {
      "bufferView": 2,
      "byteOffset": 4718304,
      "componentType": 5126,
      "count": 65532,
      "max": [
        223.5760955810547,
        222.14199829101563,
        1531.6517333984375
      ],
      "min": [
        -411.2638854980469,
        -95.04942321777344,
        0.3278999924659729
      ],
      "type": "VEC3"
    },
    {
      "bufferView": 2,
      "byteOffset": 5504688,
      "componentType": 5126,
      "count": 65532,
      "max": [
        0.9999868869781494,
        0.9999775290489197,
        0.9999051094055176
      ],
      "min": [
        -0.9997323751449585,
        -0.9999997615814209,
        -0.9999978542327881
      ],
      "type": "VEC3"
    },
    {
      "bufferView": 1,
      "byteOffset": 1572768,
      "componentType": 5126,
      "count": 65532,
      "max": [
        0.8939999938011169,
        0.9993000030517578
      ],
      "min": [
        0.008999999612569809,
        0.0430000014603138
      ],
      "type": "VEC2"
    },
    {
      "bufferView": 0,
      "byteOffset": 4169520,
      "componentType": 5125,
      "count": 349380,
      "type": "SCALAR"
    },
    {
      "bufferView": 2,
      "byteOffset": 6291072,
      "componentType": 5126,
      "count": 65532,
      "max": [
        222.56539916992188,
        189.81939697265625,
        1531.6031494140625
      ],
      "min": [
        -412.2528076171875,
        -200.68099975585938,
        23.722497940063477
      ],
      "type": "VEC3"
    },
    {
      "bufferView": 2,
      "byteOffset": 7077456,
      "componentType": 5126,
      "count": 65532,
      "max": [
        0.9999392628669739,
        0.9999189972877502,
        0.9986434578895569
      ],
      "min": [
        -0.9997265338897705,
        -0.9999916553497314,
        -0.9998890161514282
      ],
      "type": "VEC3"
    },
    {
      "bufferView": 1,
      "byteOffset": 2097024,
      "componentType": 5126,
      "count": 65532,
      "max": [
        0.8935999870300293,
        0.9993000030517578
      ],
      "min": [
        0.000699999975040555,
        0.05209999904036522
      ],
      "type": "VEC2"
    },
    {
      "bufferView": 0,
      "byteOffset": 5567040,
      "componentType": 5125,
      "count": 339510,
      "type": "SCALAR"
    },
    {
      "bufferView": 2,
      "byteOffset": 7863840,
      "componentType": 5126,
      "count": 65532,
      "max": [
        226.70480346679688,
        165.08470153808594,
        1388.1527099609375
      ],
      "min": [
        -331.40289306640625,
        -227.5845947265625,
        -1.0744999647140503
      ],
      "type": "VEC3"
    },
    {
      "bufferView": 2,
      "byteOffset": 8650224,
      "componentType": 5126,
      "count": 65532,
      "max": [
        0.999999463558197,
        0.9999998807907104,
        0.9999710917472839
      ],
      "min": [
        -0.9999992251396179,
        -0.9999973773956299,
        -0.9999996423721313
      ],
      "type": "VEC3"
    },
    {
      "bufferView": 1,
      "byteOffset": 2621280,
      "componentType": 5126,
      "count": 65532,
      "max": [
        0.9879999756813049,
        0.9993000030517578
      ],
      "min": [
        0.27160000801086426,
        0.03929999843239784
      ],
      "type": "VEC2"
    },
    {
      "bufferView": 0,
      "byteOffset": 6925080,
      "componentType": 5125,
      "count": 369696,
      "type": "SCALAR"
    },
    {
      "bufferView": 2,
      "byteOffset": 9436608,
      "componentType": 5126,
      "count": 43615,
      "max": [
        208.62770080566406,
        220.37939453125,
        1517.08056640625
      ],
      "min": [
        -426.85040283203125,
        -168.9871063232422,
        -0.6394000053405762
      ],
      "type": "VEC3"
    },
    {
      "bufferView": 2,
      "byteOffset": 9959988,
      "componentType": 5126,
      "count": 43615,
      "max": [
        0.9999628663063049,
        0.9999938607215881,
        0.9999724626541138
      ],
      "min": [
        -0.9999836683273315,
        -0.9929875135421753,
        -0.9999995231628418
      ],
      "type": "VEC3"
    },
    {
      "bufferView": 1,
      "byteOffset": 3145536,
      "componentType": 5126,
      "count": 43615,
      "max": [
        0.9743000268936157,
        0.8399999737739563
      ],
      "min": [
        0.02160000056028366,
        0.022099999710917473
      ],
      "type": "VEC2"
    },
    {
      "bufferView": 0,
      "byteOffset": 8403864,
      "componentType": 5125,
      "count": 237987,
      "type": "SCALAR"
    }
  ],
  "asset": {
    "extras": {
      "author": "Simon Chadwick (https://sketchfab.com/simonchadwick)",
      "license": "CC-BY-4.0 (http://creativecommons.org/licenses/by/4.0/)",
      "source": "https://sketchfab.com/3d-models/egan-irish-harp-national-museum-of-ireland-9d36e44a18494d768be80a7ac49b8541",
      "title": "Egan Irish harp (National Museum of Ireland)"
    },
    "generator": "Sketchfab-16.12.0",
    "version": "2.0"
  },
  "bufferViews": [
    {
      "buffer": 0,
      "byteLength": 9355812,
      "name": "floatBufferViews",
      "target": 34963
    },
    {
      "buffer": 0,
      "byteLength": 3494456,
      "byteOffset": 9355812,
      "byteStride": 8,
      "name": "floatBufferViews",
      "target": 34962
    },
    {
      "buffer": 0,
      "byteLength": 10483368,
      "byteOffset": 12850268,
      "byteStride": 12,
      "name": "floatBufferViews",
      "target": 34962
    }
  ],
  "buffers": [
    {
      "byteLength": 23333636,
      "uri": "scene.bin"
    }
  ],
  "images": [
    {
      "uri": "textures/material_0_baseColor.jpeg"
    }
  ],
  "materials": [
    {
      "doubleSided": true,
      "name": "material_0",
      "pbrMetallicRoughness": {
        "baseColorTexture": {
          "index": 0
        },
        "metallicFactor": 0.0
      }
    }
  ],
  "meshes": [
    {
      "name": "Object_0",
      "primitives": [
        {
          "attributes": {
            "NORMAL": 1,
            "POSITION": 0,
            "TEXCOORD_0": 2
          },
          "indices": 3,
          "material": 0,
          "mode": 4
        }
      ]
    },
    {
      "name": "Object_1",
      "primitives": [
        {
          "attributes": {
            "NORMAL": 5,
            "POSITION": 4,
            "TEXCOORD_0": 6
          },
          "indices": 7,
          "material": 0,
          "mode": 4
        }
      ]
    },
    {
      "name": "Object_2",
      "primitives": [
        {
          "attributes": {
            "NORMAL": 9,
            "POSITION": 8,
            "TEXCOORD_0": 10
          },
          "indices": 11,
          "material": 0,
          "mode": 4
        }
      ]
    },
    {
      "name": "Object_3",
      "primitives": [
        {
          "attributes": {
            "NORMAL": 13,
            "POSITION": 12,
            "TEXCOORD_0": 14
          },
          "indices": 15,
          "material": 0,
          "mode": 4
        }
      ]
    },
    {
      "name": "Object_4",
      "primitives": [
        {
          "attributes": {
            "NORMAL": 17,
            "POSITION": 16,
            "TEXCOORD_0": 18
          },
          "indices": 19,
          "material": 0,
          "mode": 4
        }
      ]
    },
    {
      "name": "Object_5",
      "primitives": [
        {
          "attributes": {
            "NORMAL": 21,
            "POSITION": 20,
            "TEXCOORD_0": 22
          },
          "indices": 23,
          "material": 0,
          "mode": 4
        }
      ]
    },
    {
      "name": "Object_6",
      "primitives": [
        {
          "attributes": {
            "NORMAL": 25,
            "POSITION": 24,
            "TEXCOORD_0": 26
          },
          "indices": 27,
          "material": 0,
          "mode": 4
        }
      ]
    }
  ],
  "nodes": [
    {
      "children": [
        1
      ],
      "matrix": [
        1.0,
        0.0,
        0.0,
        0.0,
        0.0,
        2.220446049250313e-16,
        -1.0,
        0.0,
        0.0,
        1.0,
        2.220446049250313e-16,
        0.0,
        0.0,
        0.0,
        0.0,
        1.0
      ],
      "name": "Sketchfab_model"
    },
    {
      "children": [
        2,
        3,
        4,
        5,
        6,
        7,
        8
      ],
      "name": "Harp.obj.cleaner.materialmerger.gles"
    },
    {
      "mesh": 0,
      "name": "Object_2"
    },
    {
      "mesh": 1,
      "name": "Object_3"
    },
    {
      "mesh": 2,
      "name": "Object_4"
    },
    {
      "mesh": 3,
      "name": "Object_5"
    },
    {
      "mesh": 4,
      "name": "Object_6"
    },
    {
      "mesh": 5,
      "name": "Object_7"
    },
    {
      "mesh": 6,
      "name": "Object_8"
    }
  ],
  "samplers": [
    {
      "magFilter": 9729,
      "minFilter": 9987,
      "wrapS": 10497,
      "wrapT": 10497
    }
  ],
  "scene": 0,
  "scenes": [
    {
      "name": "Sketchfab_Scene",
      "nodes": [
        0
      ]
    }
  ],
  "textures": [
    {
      "sampler": 0,
      "source": 0
    }
  ]
}
